<svg xmlns="http://www.w3.org/2000/svg"  viewBox="0 0 50 50" width="100px" height="100px"><path d="M 24 2 C 11.851563 2 2 11.851563 2 24 C 2 36.148438 11.851563 46 24 46 C 27.207031 46 30.25 45.304688 33 44.070313 L 33 45.25 C 33 45.65625 33.242188 46.019531 33.617188 46.171875 C 33.992188 46.328125 34.421875 46.242188 34.707031 45.957031 L 37.71875 42.941406 L 40.230469 48.417969 C 40.460938 48.917969 41.054688 49.136719 41.558594 48.90625 L 45.417969 47.140625 C 45.917969 46.910156 46.136719 46.316406 45.90625 45.8125 L 43.300781 40.125 L 48 40.125 C 48.410156 40.125 48.78125 39.875 48.929688 39.492188 C 49.082031 39.109375 48.984375 38.675781 48.683594 38.394531 L 43.71875 33.738281 C 45.171875 30.804688 46 27.5 46 24 C 46 11.851563 36.148438 2 24 2 Z M 24 4 C 35.027344 4 44 12.972656 44 24 C 44 26.960938 43.339844 29.765625 42.179688 32.296875 L 40.609375 30.824219 C 41.359375 29.007813 41.835938 27.054688 41.949219 25 L 33.972656 25 C 33.964844 25 33.960938 25 33.953125 25 C 33.421875 25.027344 33 25.464844 33 26 L 33 35.574219 C 32.160156 37.75 31.09375 39.605469 29.84375 41.003906 C 30.953125 40.625 32.003906 40.132813 33 39.550781 L 33 41.832031 C 30.292969 43.207031 27.242188 44 24 44 C 12.972656 44 4 35.027344 4 24 C 4 12.972656 12.972656 4 24 4 Z M 23 6.125 C 20.574219 6.691406 18.410156 9.28125 16.941406 13 L 23 13 Z M 25 6.125 L 25 13 L 31.058594 13 C 29.589844 9.28125 27.425781 6.691406 25 6.125 Z M 18.15625 6.992188 C 14.808594 8.148438 11.910156 10.257813 9.78125 13 L 14.769531 13 C 15.636719 10.5625 16.792969 8.519531 18.15625 6.992188 Z M 29.84375 6.992188 C 31.207031 8.519531 32.363281 10.5625 33.230469 13 L 38.21875 13 C 36.089844 10.257813 33.191406 8.148438 29.84375 6.992188 Z M 8.4375 15 C 7.054688 17.378906 6.210938 20.097656 6.050781 23 L 13.027344 23 C 13.101563 20.117188 13.496094 17.414063 14.152344 15 Z M 16.261719 15 C 15.550781 17.390625 15.109375 20.113281 15.027344 23 L 23 23 L 23 15 Z M 25 15 L 25 23 L 32.972656 23 C 32.890625 20.113281 32.453125 17.390625 31.738281 15 Z M 33.847656 15 C 34.503906 17.414063 34.898438 20.117188 34.972656 23 L 41.949219 23 C 41.789063 20.097656 40.945313 17.378906 39.5625 15 Z M 6.050781 25 C 6.210938 27.902344 7.054688 30.621094 8.4375 33 L 14.152344 33 C 13.496094 30.585938 13.101563 27.882813 13.027344 25 Z M 15.027344 25 C 15.109375 27.886719 15.546875 30.609375 16.261719 33 L 23 33 L 23 25 Z M 25 25 L 25 33 L 31.738281 33 C 32.449219 30.609375 32.890625 27.886719 32.972656 25 Z M 35 28.308594 L 45.46875 38.125 L 41.875 38.125 C 41.71875 38.125 41.566406 38.160156 41.425781 38.230469 L 41.320313 38.285156 C 40.839844 38.527344 40.632813 39.105469 40.859375 39.59375 L 43.671875 45.734375 L 41.628906 46.671875 L 38.9375 40.800781 C 38.804688 40.503906 38.527344 40.292969 38.207031 40.234375 C 37.882813 40.175781 37.554688 40.28125 37.324219 40.515625 L 35 42.835938 Z M 9.78125 35 C 11.910156 37.742188 14.808594 39.851563 18.15625 41.003906 C 16.792969 39.480469 15.636719 37.4375 14.769531 35 Z M 16.941406 35 C 18.410156 38.71875 20.574219 41.308594 23 41.875 L 23 35 Z M 25 35 L 25 41.875 C 27.425781 41.308594 29.589844 38.71875 31.058594 35 Z"/></svg>